<!DOCTYPE svg PUBLIC "-//W3C//DTD SVG 20010904//EN" "http://www.w3.org/TR/2001/REC-SVG-20010904/DTD/svg10.dtd">
<svg version="1.0" xmlns="http://www.w3.org/2000/svg" width="630px" height="630px" viewBox="0 0 6300 6300" preserveAspectRatio="xMidYMid meet">
<g id="layer101" fill="#ff9900" stroke="none">
 <path d="M2615 4941 c-839 -103 -1583 -415 -2242 -943 -154 -122 -253 -218 -253 -245 0 -27 25 -53 51 -53 11 0 66 26 122 59 733 422 1628 690 2511 752 220 15 760 7 956 -15 559 -63 1097 -197 1585 -395 170 -69 209 -75 249 -35 32 32 34 72 6 107 -52 65 -340 248 -565 357 -412 201 -856 332 -1370 406 -186 27 -846 30 -1050 5z"/>
 <path d="M5690 4705 c-14 -17 -15 -12 76 -250 73 -194 114 -354 114 -452 0 -68 -2 -77 -28 -103 -19 -19 -47 -32 -88 -41 -82 -18 -323 -15 -531 6 -95 10 -179 15 -187 12 -25 -10 -19 -45 11 -73 45 -42 221 -123 323 -148 250 -63 569 -59 715 8 69 31 80 62 71 197 -19 299 -190 668 -380 820 -52 42 -76 48 -96 24z"/>
 </g>
<g id="layer102" fill="#232f3e" stroke="none">
 <path d="M5015 3219 c-168 -22 -365 -90 -411 -140 -15 -17 -20 -39 -22 -115 -6 -138 9 -147 144 -93 157 63 253 82 424 83 136 1 164 -2 228 -22 185 -58 253 -245 133 -367 -47 -49 -128 -84 -341 -150 -320 -98 -432 -168 -512 -320 -108 -208 -59 -440 126 -593 179 -148 466 -189 773 -112 116 30 179 58 213 96 28 33 30 39 30 122 0 125 -15 134 -138 83 -122 -51 -210 -66 -372 -65 -127 0 -152 3 -203 23 -31 12 -71 34 -89 49 -90 76 -89 229 3 307 50 42 129 74 375 154 237 77 317 116 393 192 108 107 153 271 120 431 -42 199 -209 357 -445 419 -92 24 -316 34 -429 18z"/>
 <path d="M775 3210 c-253 -54 -405 -247 -405 -515 0 -155 50 -275 156 -382 78 -77 165 -126 284 -160 91 -25 386 -25 515 1 50 9 107 20 128 23 l37 6 0 -94 c-1 -210 -43 -335 -133 -396 -140 -94 -439 -83 -720 27 -135 52 -147 45 -147 -88 0 -89 1 -95 28 -121 55 -55 278 -129 459 -152 112 -14 293 -7 398 16 109 23 223 84 288 154 64 70 98 135 128 246 21 75 23 109 29 555 4 346 9 483 18 505 7 17 29 65 49 108 46 97 42 107 -69 182 -108 72 -135 73 -194 10 -23 -25 -58 -77 -79 -116 l-37 -70 -73 69 c-84 80 -174 134 -283 170 -62 20 -102 25 -207 28 -71 2 -148 -1 -170 -6z m358 -266 c99 -22 167 -56 232 -115 88 -81 124 -184 125 -356 l0 -61 -52 -12 c-112 -24 -215 -32 -346 -27 -160 5 -209 19 -277 79 -75 66 -90 105 -90 228 0 89 3 111 22 145 64 119 200 161 386 119z"/>
 <path d="M2559 3169 c-14 -5 -34 -24 -43 -42 -26 -50 -506 -1638 -506 -1674 0 -46 21 -53 153 -53 135 0 170 10 191 53 8 18 90 328 182 690 92 361 170 657 174 657 3 0 77 -300 163 -667 100 -424 164 -677 176 -693 24 -33 47 -38 174 -39 125 -1 167 12 185 55 7 16 82 326 167 688 86 363 158 662 160 665 3 2 7 2 9 0 3 -3 82 -301 176 -664 94 -363 178 -674 186 -691 21 -44 56 -54 186 -54 126 0 148 8 148 52 0 41 -506 1656 -529 1688 -25 34 -68 42 -203 38 -110 -3 -119 -5 -142 -28 -22 -22 -47 -112 -186 -684 -139 -574 -170 -694 -170 -662 0 19 -302 1268 -316 1305 -23 60 -54 71 -196 70 -62 0 -125 -5 -139 -10z"/>
 </g>

</svg>